<svg width="29" height="29" viewBox="0 0 29 29" fill="none" xmlns="http://www.w3.org/2000/svg">
<rect x="0.5" y="0.5" width="28" height="28" stroke="#F9FAFB"/>
<path fill-rule="evenodd" clip-rule="evenodd" d="M22.9583 4.83341H21.75V2.41675H19.3333V4.83341H9.66667V2.41675H7.25V4.83341H6.04167C4.70042 4.83341 3.625 5.92091 3.625 7.25008V24.1667C3.625 25.4959 4.70042 26.5834 6.04167 26.5834H22.9583C24.2875 26.5834 25.375 25.4959 25.375 24.1667V7.25008C25.375 5.92091 24.2875 4.83341 22.9583 4.83341ZM22.9583 24.1667H6.04167V10.8751H22.9583V24.1667ZM7.85417 15.7084C7.85417 14.0409 9.2075 12.6876 10.875 12.6876C12.5425 12.6876 13.8958 14.0409 13.8958 15.7084C13.8958 17.3759 12.5425 18.7292 10.875 18.7292C9.2075 18.7292 7.85417 17.3759 7.85417 15.7084Z" fill="#007AFF"/>
</svg>
