<svg width="19" height="19" viewBox="0 0 19 19" fill="none" xmlns="http://www.w3.org/2000/svg">
<path d="M9.45933 6.72933C9.13319 6.72507 8.86984 6.46172 8.86558 6.13558V2.17725C8.86558 1.84933 9.13141 1.5835 9.45933 1.5835C9.78725 1.5835 10.0531 1.84933 10.0531 2.17725V6.13558C10.0488 6.46172 9.78546 6.72507 9.45933 6.72933Z" fill="#007AFF"/>
<path d="M9.45933 17.8127C9.13319 17.8084 8.86984 17.545 8.86558 17.2189V13.2606C8.86558 12.9327 9.13141 12.6668 9.45933 12.6668C9.78725 12.6668 10.0531 12.9327 10.0531 13.2606V17.2189C10.0488 17.545 9.78546 17.8084 9.45933 17.8127Z" fill="#007AFF"/>
<path d="M7.41683 7.37058C7.22151 7.37201 7.03798 7.27728 6.92599 7.11725L4.66183 3.87933C4.5698 3.75043 4.53309 3.59011 4.55985 3.43401C4.58661 3.27791 4.67462 3.13897 4.80433 3.04808C5.06778 2.888 5.40961 2.95295 5.59599 3.1985L7.87599 6.43641C8.00886 6.61598 8.02805 6.85547 7.92547 7.05389C7.82289 7.25232 7.6164 7.37515 7.39308 7.37058H7.41683Z" fill="#007AFF"/>
<path d="M13.7739 16.451C13.5786 16.4524 13.3951 16.3577 13.2831 16.1977L11.0427 12.9597C10.8547 12.6909 10.9202 12.3205 11.1891 12.1325C11.458 11.9444 11.8284 12.01 12.0164 12.2789L14.2806 15.5168C14.4134 15.6964 14.4326 15.9359 14.3301 16.1343C14.2275 16.3327 14.021 16.4556 13.7977 16.451H13.7739Z" fill="#007AFF"/>
<path d="M6.11058 9.07266C6.0424 9.08361 5.97292 9.08361 5.90475 9.07266L2.19183 7.68725C2.03748 7.63229 1.91221 7.51675 1.84497 7.36734C1.77774 7.21793 1.77434 7.04755 1.83558 6.89558C1.88825 6.73971 2.00404 6.61318 2.15464 6.54692C2.30523 6.48066 2.47674 6.48078 2.62725 6.54725L6.29266 7.92475C6.55847 8.02693 6.7143 8.30344 6.66404 8.58375C6.61378 8.86406 6.37158 9.0692 6.08683 9.07266H6.11058Z" fill="#007AFF"/>
<path d="M16.5289 12.8647C16.4586 12.8631 16.389 12.8497 16.3231 12.8252L12.626 11.4714C12.4702 11.4184 12.3434 11.3031 12.2759 11.153C12.2083 11.0029 12.2061 10.8315 12.2697 10.6797C12.3247 10.5254 12.4402 10.4001 12.5896 10.3329C12.7391 10.2657 12.9094 10.2623 13.0614 10.3235L16.7743 11.6772C16.9287 11.7322 17.0539 11.8477 17.1212 11.9972C17.1884 12.1466 17.1918 12.3169 17.1306 12.4689C17.0421 12.7213 16.7957 12.8834 16.5289 12.8647Z" fill="#007AFF"/>
<path d="M2.19183 12.2393C1.8875 12.247 1.62665 12.0233 1.58789 11.7214C1.54913 11.4194 1.74501 11.1371 2.04141 11.0677L5.86516 10.0464C6.01739 10.0053 6.17972 10.0264 6.31635 10.1051C6.45299 10.1839 6.5527 10.3137 6.5935 10.466C6.67452 10.7824 6.48829 11.1057 6.17391 11.1943L2.33433 12.2156C2.28809 12.2298 2.24017 12.2378 2.19183 12.2393Z" fill="#007AFF"/>
<path d="M12.9031 9.3735C12.6327 9.37235 12.3963 9.191 12.3252 8.93016C12.284 8.77793 12.3052 8.6156 12.3839 8.47897C12.4626 8.34234 12.5924 8.24263 12.7447 8.20183L16.5843 7.18058C16.9013 7.09532 17.2274 7.28317 17.3127 7.60016C17.3979 7.91715 17.2101 8.24324 16.8931 8.3285L13.0693 9.34975C13.0157 9.367 12.9594 9.37503 12.9031 9.3735Z" fill="#007AFF"/>
<path d="M4.62225 16.0314C4.39278 16.0295 4.18497 15.8955 4.08849 15.6873C3.992 15.4791 4.02413 15.234 4.171 15.0577L6.71225 12.0731C6.92797 11.8289 7.29761 11.7975 7.55141 12.0018C7.67255 12.1034 7.74819 12.2491 7.76157 12.4066C7.77494 12.5641 7.72495 12.7205 7.62266 12.841L5.08141 15.8414C4.96413 15.9697 4.79591 16.0393 4.62225 16.0314Z" fill="#007AFF"/>
<path d="M11.7472 7.56058C11.6084 7.5635 11.4733 7.51565 11.3672 7.426C11.2461 7.32443 11.1705 7.17875 11.1571 7.02123C11.1437 6.86371 11.1937 6.70736 11.296 6.58683L13.8372 3.55475C13.9388 3.4336 14.0845 3.35797 14.242 3.34459C14.3995 3.33122 14.5559 3.38121 14.6764 3.4835C14.9029 3.68845 14.934 4.03306 14.7477 4.27516L12.2064 7.32308C12.0962 7.46644 11.928 7.55344 11.7472 7.56058Z" fill="#007AFF"/>
<path d="M9.45933 6.72933C9.13319 6.72507 8.86984 6.46172 8.86558 6.13558V2.17725C8.86558 1.84933 9.13141 1.5835 9.45933 1.5835C9.78725 1.5835 10.0531 1.84933 10.0531 2.17725V6.13558C10.0488 6.46172 9.78546 6.72507 9.45933 6.72933Z" fill="#007AFF"/>
<path d="M9.45933 17.8127C9.13319 17.8084 8.86984 17.545 8.86558 17.2189V13.2606C8.86558 12.9327 9.13141 12.6668 9.45933 12.6668C9.78725 12.6668 10.0531 12.9327 10.0531 13.2606V17.2189C10.0488 17.545 9.78546 17.8084 9.45933 17.8127Z" fill="#007AFF"/>
<path d="M7.41683 7.37058C7.22151 7.37201 7.03798 7.27728 6.92599 7.11725L4.66183 3.87933C4.5698 3.75043 4.53309 3.59011 4.55985 3.43401C4.58661 3.27791 4.67462 3.13897 4.80433 3.04808C5.06778 2.888 5.40961 2.95295 5.59599 3.1985L7.87599 6.43641C8.00886 6.61598 8.02805 6.85547 7.92547 7.05389C7.82289 7.25232 7.6164 7.37515 7.39308 7.37058H7.41683Z" fill="#007AFF"/>
<path d="M13.7739 16.451C13.5786 16.4524 13.3951 16.3577 13.2831 16.1977L11.0427 12.9597C10.8547 12.6909 10.9202 12.3205 11.1891 12.1325C11.458 11.9444 11.8284 12.01 12.0164 12.2789L14.2806 15.5168C14.4134 15.6964 14.4326 15.9359 14.3301 16.1343C14.2275 16.3327 14.021 16.4556 13.7977 16.451H13.7739Z" fill="#007AFF"/>
<path d="M6.11058 9.07266C6.0424 9.08361 5.97292 9.08361 5.90475 9.07266L2.19183 7.68725C2.03748 7.63229 1.91221 7.51675 1.84497 7.36734C1.77774 7.21793 1.77434 7.04755 1.83558 6.89558C1.88825 6.73971 2.00404 6.61318 2.15464 6.54692C2.30523 6.48066 2.47674 6.48078 2.62725 6.54725L6.29266 7.92475C6.55847 8.02693 6.7143 8.30344 6.66404 8.58375C6.61378 8.86406 6.37158 9.0692 6.08683 9.07266H6.11058Z" fill="#007AFF"/>
<path d="M16.5289 12.8647C16.4586 12.8631 16.389 12.8497 16.3231 12.8252L12.626 11.4714C12.4702 11.4184 12.3434 11.3031 12.2759 11.153C12.2083 11.0029 12.2061 10.8315 12.2697 10.6797C12.3247 10.5254 12.4402 10.4001 12.5896 10.3329C12.7391 10.2657 12.9094 10.2623 13.0614 10.3235L16.7743 11.6772C16.9287 11.7322 17.0539 11.8477 17.1212 11.9972C17.1884 12.1466 17.1918 12.3169 17.1306 12.4689C17.0421 12.7213 16.7957 12.8834 16.5289 12.8647Z" fill="#007AFF"/>
<path d="M2.19183 12.2393C1.8875 12.247 1.62665 12.0233 1.58789 11.7214C1.54913 11.4194 1.74501 11.1371 2.04141 11.0677L5.86516 10.0464C6.01739 10.0053 6.17972 10.0264 6.31635 10.1051C6.45299 10.1839 6.5527 10.3137 6.5935 10.466C6.67452 10.7824 6.48829 11.1057 6.17391 11.1943L2.33433 12.2156C2.28809 12.2298 2.24017 12.2378 2.19183 12.2393Z" fill="#007AFF"/>
<path d="M12.9031 9.3735C12.6327 9.37235 12.3963 9.191 12.3252 8.93016C12.284 8.77793 12.3052 8.6156 12.3839 8.47897C12.4626 8.34234 12.5924 8.24263 12.7447 8.20183L16.5843 7.18058C16.9013 7.09532 17.2274 7.28317 17.3127 7.60016C17.3979 7.91715 17.2101 8.24324 16.8931 8.3285L13.0693 9.34975C13.0157 9.367 12.9594 9.37503 12.9031 9.3735Z" fill="#007AFF"/>
<path d="M4.62225 16.0314C4.39278 16.0295 4.18497 15.8955 4.08849 15.6873C3.992 15.4791 4.02413 15.234 4.171 15.0577L6.71225 12.0731C6.92797 11.8289 7.29761 11.7975 7.55141 12.0018C7.67255 12.1034 7.74819 12.2491 7.76157 12.4066C7.77494 12.5641 7.72495 12.7205 7.62266 12.841L5.08141 15.8414C4.96413 15.9697 4.79591 16.0393 4.62225 16.0314Z" fill="#007AFF"/>
<path d="M11.7472 7.56058C11.6084 7.5635 11.4733 7.51565 11.3672 7.426C11.2461 7.32443 11.1705 7.17875 11.1571 7.02123C11.1437 6.86371 11.1937 6.70736 11.296 6.58683L13.8372 3.55475C13.9388 3.4336 14.0845 3.35797 14.242 3.34459C14.3995 3.33122 14.5559 3.38121 14.6764 3.4835C14.9029 3.68845 14.934 4.03306 14.7477 4.27516L12.2064 7.32308C12.0962 7.46644 11.928 7.55344 11.7472 7.56058Z" fill="#007AFF"/>
</svg>
